<?xml version="1.0" encoding="UTF-8"?>
<svg xmlns="http://www.w3.org/2000/svg" xmlns:xlink="http://www.w3.org/1999/xlink" viewBox="0 0 16 16" width="16px" height="16px">
<g id="surface958799">
<path style=" stroke:none;fill-rule:nonzero;fill:rgb(26.666668%,49.411765%,60.784316%);fill-opacity:1;" d="M 11.953125 1.984375 C 11.429688 1.984375 10.90625 2.1875 10.5 2.59375 L 2.59375 10.5 L 2.5625 10.65625 L 2.015625 13.40625 L 1.859375 14.140625 L 2.59375 13.984375 L 5.34375 13.4375 L 5.5 13.40625 L 13.40625 5.5 C 14.21875 4.6875 14.21875 3.40625 13.40625 2.59375 C 13 2.1875 12.476562 1.984375 11.953125 1.984375 Z M 11.953125 2.9375 C 12.203125 2.9375 12.457031 3.054688 12.703125 3.296875 C 13.1875 3.785156 13.1875 4.3125 12.703125 4.796875 L 12.34375 5.140625 L 10.859375 3.65625 L 11.203125 3.296875 C 11.445312 3.054688 11.703125 2.9375 11.953125 2.9375 Z M 10.15625 4.359375 L 11.640625 5.84375 L 5.59375 11.890625 C 5.265625 11.25 4.75 10.734375 4.109375 10.40625 Z M 3.46875 11.21875 C 4.066406 11.460938 4.539062 11.929688 4.78125 12.53125 L 3.140625 12.859375 Z M 3.46875 11.21875 "/>
</g>
</svg>
